<?xml version="1.0" encoding="utf-8"?>
<!-- Generator: Adobe Illustrator 24.0.0, SVG Export Plug-In . SVG Version: 6.00 Build 0)  -->
<svg version="1.1" id="Calque_1" xmlns="http://www.w3.org/2000/svg" xmlns:xlink="http://www.w3.org/1999/xlink" x="0px" y="0px"
	 viewBox="0 0 103.8 75.9" style="enable-background:new 0 0 103.8 75.9;" xml:space="preserve">
<style type="text/css">
	.st0{fill:#C2A362;}
</style>
<title>Fichier 26</title>
<g id="Calque_2_1_">
	<g id="Calque_1-2">
		<path class="st0" d="M103.1,57c-0.6,0-0.8,0.4-1,1.5c-0.3,1.7-1.5,6-3.6,8.1c-3.9,4-9.6,4.8-16.8,4.8c-4.9,0-9.7-1-14.2-2.9
			c0-0.3-0.1-0.7-0.1-1c-0.5-4.1-0.5-11.7-0.5-21v-17c0-15.1,0-17.8,0.2-20.9c0-1.4,0.3-2.8,1-4c3.2-0.6,6.4-0.9,9.7-0.9
			c8.5,0,16,2.6,19.4,5.5c2.5,2.1,4.1,6.1,4.1,9.9c0,1.4,0.1,2,0.8,2s0.8-0.6,0.9-2s0.1-6.8,0.3-10c0.2-3.5,0.5-4.7,0.5-5.4
			c0.1-0.5-0.3-1-0.8-1.1c0,0-0.1,0-0.1,0c-3.6-0.5-6.6-0.8-10.3-1.5C87.8,0.4,83.1,0,78.4,0c-4.6-0.1-9.2,0.5-13.7,1.6l-1.9,0.1
			c-0.5,0-6.6-0.3-10.9-0.3c-1.1,0-1.5,0.2-1.5,0.8c0,0.4,0.4,0.6,0.8,0.6c1.1,0,2.2,0.1,3.3,0.3c1.1,0.2,2,0.6,2.8,1.3
			c-3.1,1.5-5.9,3.6-8.3,6c-5.7,5.9-9.4,13.5-10.5,21.6H17.1c-0.3,0-0.6-0.1-0.6-0.6v-2c0-15.1,0-17.8,0.2-20.9c0.2-3.4,1-5,3.6-5.5
			c0.8-0.2,1.6-0.3,2.4-0.3c0.4,0,0.8-0.2,0.8-0.6c0-0.6-0.5-0.8-1.5-0.8c-2.9,0-9,0.3-9.5,0.3S5.9,1.4,1.5,1.4C0.5,1.4,0,1.6,0,2.1
			c0,0.4,0.4,0.6,0.8,0.6C1.9,2.7,3,2.8,4.1,3c3.2,0.7,4,2.2,4.2,5.5c0.2,3.1,0.2,5.8,0.2,20.9v17c0,9.3,0,16.9-0.5,21
			c-0.4,2.8-0.9,4.9-2.8,5.3c-1,0.2-1.9,0.3-2.9,0.4c-0.6,0-0.8,0.3-0.8,0.6c0,0.6,0.5,0.8,1.5,0.8c2.9,0,9-0.3,9.5-0.3
			s6.6,0.3,11.9,0.3c1.1,0,1.5-0.3,1.5-0.8c0-0.3-0.2-0.6-0.8-0.6c-1.5-0.1-2.9-0.2-4.4-0.4c-2.9-0.4-3.5-2.5-3.8-5.3
			c-0.5-4.1-0.5-11.7-0.5-21V36.3c0-0.3,0.2-0.5,0.4-0.6c0.1,0,0.1,0,0.2,0h20.9c0,0.4,0,0.7,0,1.1C38,46,40.4,57,49.8,65.4
			c2.4,2.1,5,3.9,7.8,5.4c-0.3,1-1.1,1.8-2,2c-1,0.2-1.9,0.3-2.9,0.4c-0.6,0-0.8,0.3-0.8,0.6c0,0.6,0.5,0.8,1.5,0.8
			c2.9,0,9-0.3,9.5-0.3c0.3,0,2,0.1,4.4,0.2c4.7,1,9.6,1.5,14.5,1.4c6.2,0,13.6-0.7,17.4-2.2c1.8-0.8,1.9-1,2.5-2.8
			c1-4.1,1.7-8.2,2.1-12.4C103.8,57.7,103.6,57,103.1,57z M58.8,46.5c0,6.4,0,12.1-0.2,16.3C51,55.9,46.7,46.2,46.8,36v-0.3h11.4
			c0.3,0,0.6,0.2,0.6,0.5c0,0,0,0,0,0L58.8,46.5z M58.8,31.5c0,0.5-0.3,0.6-0.6,0.6H46.9c0.5-8.2,2.5-15.4,8.6-21.3
			c0.9-0.9,2-1.7,3.1-2.5v0.3c0.2,3.1,0.2,5.8,0.2,20.9L58.8,31.5z"/>
	</g>
</g>
</svg>
