<svg xmlns="http://www.w3.org/2000/svg" viewBox="0 0 23.96 200.71"><defs><style>.cls-1{fill:#1d1d1b;}</style></defs><title>Fichier 6</title><g id="Calque_2" data-name="Calque 2"><g id="Calque_1-2" data-name="Calque 1"><path class="cls-1" d="M23.46,100.85a.5.5,0,0,1-.33-.12l-7-6.28a9.28,9.28,0,0,1-3.09-7l.7-76a4.36,4.36,0,0,0-2.15-3.8L.25.93A.5.5,0,0,1,.75.07L12.11,6.75a5.37,5.37,0,0,1,2.64,4.67l-.7,76a8.33,8.33,0,0,0,2.76,6.27l7,6.27a.51.51,0,0,1,0,.71A.51.51,0,0,1,23.46,100.85Z"/><path class="cls-1" d="M.5,200.71a.5.5,0,0,1-.43-.25.49.49,0,0,1,.18-.68L11.6,193.1a4.37,4.37,0,0,0,2.15-3.8l-.7-76a9.32,9.32,0,0,1,3.09-7l7-6.27a.51.51,0,0,1,.71,0,.51.51,0,0,1,0,.71l-7,6.27a8.31,8.31,0,0,0-2.76,6.27l.7,76A5.37,5.37,0,0,1,12.11,194L.75,200.64A.55.55,0,0,1,.5,200.71Z"/></g></g></svg>