<svg xmlns="http://www.w3.org/2000/svg" viewBox="0 0 23.96 200.71"><defs><style>.cls-1{fill:#1d1d1b;}</style></defs><title>Fichier 7</title><g id="Calque_2" data-name="Calque 2"><g id="Calque_1-2" data-name="Calque 1"><path class="cls-1" d="M.5,100.85a.5.5,0,0,0,.33-.12l7-6.28a9.28,9.28,0,0,0,3.09-7l-.7-76a4.38,4.38,0,0,1,2.15-3.8L23.72.93a.5.5,0,0,0,.17-.68.49.49,0,0,0-.68-.18L11.85,6.75a5.39,5.39,0,0,0-2.64,4.67l.7,76a8.29,8.29,0,0,1-2.76,6.27L.17,100a.5.5,0,0,0,0,.71A.49.49,0,0,0,.5,100.85Z"/><path class="cls-1" d="M23.46,200.71a.5.5,0,0,0,.26-.93L12.36,193.1a4.39,4.39,0,0,1-2.15-3.8l.7-76a9.32,9.32,0,0,0-3.09-7L.83,100a.5.5,0,0,0-.66.75l7,6.27a8.28,8.28,0,0,1,2.76,6.27l-.7,76A5.39,5.39,0,0,0,11.85,194l11.36,6.68A.59.59,0,0,0,23.46,200.71Z"/></g></g></svg>