<svg xmlns="http://www.w3.org/2000/svg" viewBox="0 0 472.06 184.69"><defs><style>.cls-1,.cls-2{fill:none;}.cls-2{stroke:#000;stroke-linecap:round;stroke-linejoin:round;stroke-width:0;}</style></defs><title>Fichier 4</title><g id="Calque_2" data-name="Calque 2"><g id="Calque_1-2" data-name="Calque 1"><path class="cls-1" d="M385.44,70.93c6.48,0,19.88-3.74,19.88-24.7,0-17.28-10.52-26.57-21.89-26.57-12,0-21,7.92-21,23.69C362.4,60.13,372.48,70.93,385.44,70.93Z"/><path class="cls-1" d="M251.55,127.3H240.13c0,.1,0,.19,0,.29A36,36,0,0,0,252,154.32c.16-4.21.16-9.85.16-16.27V127.88A.56.56,0,0,0,251.55,127.3Z"/><path class="cls-1" d="M251.92,99.84a21.41,21.41,0,0,0-3.08,2.48c-6.1,5.86-8.16,13.08-8.61,21.3h11.32c.29,0,.58-.09.58-.58v-2c0-15.1,0-17.81-.19-20.91A2.28,2.28,0,0,1,251.92,99.84Z"/><path class="cls-1" d="M123.94,71c4.82,0,16.92-2.45,16.92-20.73,0-14.48-8.93-22.54-18.79-22.54S104,33.92,104,47.53C104,61.64,111.84,71,123.94,71Z"/><path class="cls-1" d="M0,0V184.69H472.06V0ZM383.93,17.21c16.2,0,28.3,10.23,28.3,27,0,16.13-11.38,29.45-28.73,29.45-19.73,0-27.94-15.34-27.94-28.3C355.56,33.7,364.06,17.21,383.93,17.21ZM238.49,26.36c3,0,7.34.22,7.49.22,1,0,5.4-.22,7.41-.22.73,0,.94.22.94.5s-.36.51-.79.51-1.23.07-1.95.14c-2,.29-2.44,1.44-2.59,3.53s-.07,3.53-.07,13V55c0,8.28.29,12.45,1.51,13.61,1.15,1,2.6,1.44,7.56,1.44,3.17,0,6.05,0,7.64-2a9.19,9.19,0,0,0,1.36-3.6c.08-.58.22-.86.58-.86s.43.21.43.93a46.33,46.33,0,0,1-.86,6.48c-.43,1.44-.36,1.8-3.82,1.8-4.89,0-10.29-.36-17.5-.36-2.37,0-3.81.22-6.33.22-.72,0-1.15-.15-1.15-.58,0-.21.21-.43.79-.43a7.26,7.26,0,0,0,1.73-.14c1.22-.22,1.65-1.66,1.87-3.39.43-2.73.29-7.7.29-13.25V44.07c0-9.5,0-11.09-.15-13s-.43-3.31-2.88-3.6a14.23,14.23,0,0,0-1.8-.07c-.5,0-.79-.22-.79-.51S237.77,26.36,238.49,26.36Zm-37.44,0c1.44,0,3.38.14,7.42.22.36,0,13.17,0,14.61-.08a9.85,9.85,0,0,0,2.81-.36,2.26,2.26,0,0,1,.79-.21c.15,0,.29.14.29.5a32.73,32.73,0,0,0-.57,3.24c-.08,1.23-.15,2.38-.22,3.75,0,.64-.14,1.08-.5,1.08s-.51-.29-.51-.8a7,7,0,0,0-.5-2.3c-.43-1.44-1.08-1.95-4.68-2.16-.94-.07-8.07-.14-8.21-.14s-.36.14-.36.57V46c0,.43.07.72.43.72.87,0,8.21-.08,9.72-.22,1.66-.07,2.74-.29,3.31-1.08.29-.43.51-.58.8-.58.14,0,.28.08.28.44s-.28,1.73-.5,3.81-.22,3.46-.29,4.4c-.07.57-.21.79-.5.79s-.43-.43-.43-.94a8.43,8.43,0,0,0-.22-1.73c-.29-.93-.72-1.94-3.46-2.16-1.65-.14-7.48-.28-8.64-.28-.43,0-.5.21-.5.5V55c0,2.23-.07,8.56,0,9.79.14,2.66.5,4,2,4.68a13.75,13.75,0,0,0,5.26.65,21.19,21.19,0,0,0,5.47-.44c2.16-.64,2.67-2.08,3.24-4.75.15-.72.36-1,.65-1s.43.65.43,1.08-.57,5-.79,6.27c-.29,1.44-.79,1.58-3.17,1.58-4.75,0-6.76-.14-9.28-.14s-5.84-.22-8.5-.22c-1.66,0-3,.22-4.75.22-.65,0-1-.15-1-.5a.59.59,0,0,1,.65-.51,5.2,5.2,0,0,0,1.44-.22c1.29-.28,2.16-1.22,2.3-5.68.07-2.45.14-5.4.14-10.88V44.07c0-9.43,0-11.16-.14-13.1s-.65-3-2.74-3.46a12.21,12.21,0,0,0-1.72-.14c-.51,0-.94-.22-.94-.43C200,26.5,200.33,26.36,201.05,26.36Zm-78.55-.87c14.26,0,25.13,8.5,25.13,23,0,13.76-10.15,25-25.49,25-17.64,0-24.84-13.1-24.84-24.05C97.3,39.82,104.71,25.49,122.5,25.49ZM51,72.66c-4,0-8.49-.22-8.85-.22s-4.9.22-7.06.22c-.79,0-1.15-.15-1.15-.58,0-.21.14-.43.57-.43a10.58,10.58,0,0,0,2.16-.29c1.44-.28,1.8-1.87,2.09-4,.36-3,.36-8.71.36-15.62V39.1c0-11.23,0-13.24-.14-15.55s-.72-3.6-3.1-4.1a12.91,12.91,0,0,0-2.45-.22c-.28,0-.57-.14-.57-.43s.36-.58,1.15-.58c3.24,0,7.78.22,8.14.22s4.89-.22,7.05-.22c.79,0,1.15.15,1.15.58s-.28.43-.57.43a10.08,10.08,0,0,0-1.8.22c-1.95.36-2.52,1.58-2.67,4.1-.14,2.31-.14,4.32-.14,15.55v1.52a.38.38,0,0,0,.43.43H76.13c.22,0,.43-.07.43-.43V39.1c0-11.23,0-13.24-.14-15.55s-.72-3.6-3.1-4.1a12.88,12.88,0,0,0-2.44-.22c-.29,0-.58-.14-.58-.43s.36-.58,1.15-.58c3.24,0,7.78.22,8.14.22s4.9-.22,7.06-.22c.79,0,1.15.15,1.15.58s-.29.43-.58.43a10.29,10.29,0,0,0-1.8.22c-1.94.36-2.52,1.58-2.66,4.1-.15,2.31-.15,4.32-.15,15.55V51.78c0,6.91,0,12.6.36,15.62.22,2.09.65,3.68,2.81,4a29.87,29.87,0,0,0,3.24.29c.43,0,.58.22.58.43,0,.36-.36.58-1.15.58-4,0-8.5-.22-8.86-.22s-4.9.22-7.06.22c-.79,0-1.15-.15-1.15-.58,0-.21.14-.43.58-.43a10.77,10.77,0,0,0,2.16-.29c1.44-.28,1.8-1.87,2.09-4,.35-3,.35-8.71.35-15.62V44.22a.42.42,0,0,0-.43-.44H45.6a.39.39,0,0,0-.43.44v7.56c0,6.91,0,12.6.36,15.62.22,2.09.65,3.68,2.81,4a29.87,29.87,0,0,0,3.24.29c.43,0,.57.22.57.43C52.15,72.44,51.8,72.66,51,72.66ZM171.33,96.08H65.06v-1.5h0v-1.5H171.33Zm21.15-62.16c0,.65-.28.86-.5.86s-.5-.28-.5-.86a7.32,7.32,0,0,0-.08-1c-.28-2.88-1.22-3.6-8.49-3.67-2.74,0-5-.07-7.06-.07v25.7c0,5.55.07,10.66.36,13.32.22,1.73.36,2.74,2.16,3.17a14,14,0,0,0,2.81.29c.58,0,.86.22.86.43,0,.36-.21.58-.93.58-3.68,0-7.92-.22-8.21-.22s-4.54.22-6.41.22c-.79,0-1.08-.15-1.08-.5s.22-.51.79-.51a12.09,12.09,0,0,0,1.59-.07c1.36-.22,1.58-1.08,1.87-3.53s.29-7.78.29-13.18V29.17c-2.38,0-6.2,0-9.08.07-4.6.07-5.61.79-6.62,2.3a11,11,0,0,0-1.08,2.24c-.22.5-.36.57-.65.57s-.36-.29-.36-.65,1-5.18,1.44-7.12c.22-.87.43-1.16.65-1.16.5,0,1.87.65,3.17.79,2.52.29,4.53.37,4.61.37h23.61a30.41,30.41,0,0,0,5.19-.37,8.66,8.66,0,0,1,1.37-.28c.28,0,.43.36.43.65C192.63,28.59,192.48,33.34,192.48,33.92ZM295,162.44c-.58,1.84-.77,2-2.51,2.81-3.88,1.55-11.23,2.22-17.43,2.22A63.5,63.5,0,0,1,260.62,166c-2.39-.07-4.17-.15-4.42-.15-.48,0-6.58.29-9.49.29-1.06,0-1.55-.19-1.55-.77,0-.3.2-.59.78-.59a15.17,15.17,0,0,0,2.9-.38,2.83,2.83,0,0,0,2.06-1.95,37.26,37.26,0,0,1-7.77-5.41c-9.39-8.42-11.72-19.46-11.72-28.66,0-.33,0-.69,0-1.06H210.51a.51.51,0,0,0-.58.58v10.17c0,9.29,0,16.94.48,21,.29,2.81.87,4.94,3.78,5.33a42.8,42.8,0,0,0,4.35.38c.58,0,.78.29.78.59,0,.48-.49.77-1.55.77-5.33,0-11.43-.29-11.91-.29s-6.58.29-9.49.29c-1.06,0-1.54-.19-1.54-.77,0-.3.19-.59.77-.59a15.17,15.17,0,0,0,2.9-.38c1.94-.39,2.42-2.52,2.81-5.33.49-4.06.49-11.71.49-21V121c0-15.1,0-17.81-.2-20.91-.19-3.29-1-4.84-4.16-5.52a18.47,18.47,0,0,0-3.29-.29c-.39,0-.78-.19-.78-.58,0-.58.49-.77,1.55-.77,4.36,0,10.46.29,10.94.29s6.58-.29,9.49-.29c1.06,0,1.55.19,1.55.77,0,.39-.39.58-.78.58a14.84,14.84,0,0,0-2.42.29c-2.61.48-3.39,2.13-3.58,5.52-.19,3.1-.19,5.81-.19,20.91v2c0,.49.29.58.58.58h21.26a38.21,38.21,0,0,1,10.48-21.68,32.27,32.27,0,0,1,8.35-6,5.39,5.39,0,0,0-2.82-1.34,18.47,18.47,0,0,0-3.29-.29c-.39,0-.78-.19-.78-.58,0-.58.49-.77,1.55-.77,4.36,0,10.46.29,10.94.29l1.91-.08a55.21,55.21,0,0,1,13.67-1.57,83.2,83.2,0,0,1,14,1.16c3.68.68,6.68,1,10.26,1.45a.92.92,0,0,1,.87,1.07c0,.77-.29,1.93-.48,5.42-.2,3.19-.2,8.52-.29,10s-.3,2-.88,2-.77-.67-.77-2c0-3.78-1.55-7.74-4.07-9.87-3.38-2.91-10.84-5.52-19.36-5.52a48.57,48.57,0,0,0-9.67.88,8,8,0,0,0-1,4c-.19,3.1-.19,5.81-.19,20.91v17c0,9.29,0,16.94.48,21,0,.36.08.71.13,1A35,35,0,0,0,275.07,163c7.26,0,13-.87,16.84-4.84,2-2.13,3.3-6.39,3.59-8.13.19-1.07.38-1.45,1-1.45s.67.68.67,1.45A99.91,99.91,0,0,1,295,162.44ZM297.6,44.58a28.75,28.75,0,0,1,8.07-19.66c4.32-4.32,10.87-7.71,22-7.71a61.57,61.57,0,0,1,10.44.87c2.73.5,5,.72,7.63,1.08.51.07.65.36.65.79,0,.58-.22,1.44-.36,4-.15,2.38-.15,6.34-.22,7.42s-.21,1.51-.64,1.51-.58-.5-.58-1.51a10,10,0,0,0-3-7.35c-2.52-2.16-8.06-4.1-14.4-4.1-9.57,0-14,2.81-16.56,5.26-5.25,5-6.48,11.45-6.48,18.79,0,13.75,10.59,26.35,26,26.35,5.4,0,9.64-.64,12.52-3.6,1.52-1.58,2.45-4.75,2.67-6,.14-.8.29-1.08.72-1.08s.5.5.5,1.08a74.63,74.63,0,0,1-1.58,9.21c-.43,1.37-.58,1.51-1.87,2.09-2.88,1.15-8.36,1.66-13,1.66-10.81,0-18.08-2.67-23.77-7.78C299.33,59.63,297.6,51.42,297.6,44.58Zm127.86,51.5H319.18v-3H425.46v1.5h0ZM440,48a11.05,11.05,0,0,1-1.52-.07c-.36,0-.79-.14-.79-.5,0-.58.43-.65,1.95-.65,7,0,12.45-4.75,12.45-12.31A14.85,14.85,0,0,0,448,24a12.51,12.51,0,0,0-9.87-3.6,9,9,0,0,0-3.09.43c-.43.15-.58.65-.58,1.37v29.6c0,6.91,0,12.6.36,15.62.22,2.09.65,3.68,2.81,4a29.87,29.87,0,0,0,3.24.29c.43,0,.58.22.58.43,0,.36-.36.58-1.16.58-4,0-8.49-.22-8.85-.22s-4.75.22-6.91.22c-.8,0-1.16-.15-1.16-.58,0-.21.15-.43.58-.43a10.68,10.68,0,0,0,2.16-.29c1.44-.28,1.8-1.87,2.09-4,.36-3,.36-8.71.36-15.62V39.1c0-11.23,0-13.24-.15-15.55s-.72-3.6-3.09-4.1a13,13,0,0,0-2.45-.22c-.29,0-.58-.14-.58-.43s.36-.58,1.16-.58c3.24,0,7.56.22,8.13.22,1.59,0,5.76-.22,9.08-.22,9,0,12.24,3,13.39,4.11a13.13,13.13,0,0,1,3.6,9.43C457.66,41.12,450.17,48,440,48Z"/><path d="M51.58,71.65a29.87,29.87,0,0,1-3.24-.29c-2.16-.28-2.59-1.87-2.81-4-.36-3-.36-8.71-.36-15.62V44.22a.39.39,0,0,1,.43-.44H76.13a.42.42,0,0,1,.43.44v7.56c0,6.91,0,12.6-.35,15.62-.29,2.09-.65,3.68-2.09,4a10.77,10.77,0,0,1-2.16.29c-.44,0-.58.22-.58.43,0,.43.36.58,1.15.58,2.16,0,6.7-.22,7.06-.22s4.9.22,8.86.22c.79,0,1.15-.22,1.15-.58,0-.21-.15-.43-.58-.43a29.87,29.87,0,0,1-3.24-.29c-2.16-.28-2.59-1.87-2.81-4-.36-3-.36-8.71-.36-15.62V39.1c0-11.23,0-13.24.15-15.55.14-2.52.72-3.74,2.66-4.1a10.29,10.29,0,0,1,1.8-.22c.29,0,.58-.14.58-.43s-.36-.58-1.15-.58c-2.16,0-6.7.22-7.06.22s-4.9-.22-8.14-.22c-.79,0-1.15.15-1.15.58s.29.43.58.43a12.88,12.88,0,0,1,2.44.22c2.38.5,3,1.65,3.1,4.1s.14,4.32.14,15.55v1.52c0,.36-.21.43-.43.43H45.6a.38.38,0,0,1-.43-.43V39.1c0-11.23,0-13.24.14-15.55.15-2.52.72-3.74,2.67-4.1a10.08,10.08,0,0,1,1.8-.22c.29,0,.57-.14.57-.43s-.36-.58-1.15-.58c-2.16,0-6.69.22-7.05.22s-4.9-.22-8.14-.22c-.79,0-1.15.15-1.15.58s.29.43.57.43a12.91,12.91,0,0,1,2.45.22c2.38.5,2.95,1.65,3.1,4.1s.14,4.32.14,15.55V51.78c0,6.91,0,12.6-.36,15.62-.29,2.09-.65,3.68-2.09,4a10.58,10.58,0,0,1-2.16.29c-.43,0-.57.22-.57.43,0,.43.36.58,1.15.58,2.16,0,6.7-.22,7.06-.22s4.89.22,8.85.22c.8,0,1.15-.22,1.15-.58C52.15,71.87,52,71.65,51.58,71.65Z"/><path d="M122.14,73.45c15.34,0,25.49-11.23,25.49-25,0-14.47-10.87-23-25.13-23-17.79,0-25.2,14.33-25.2,23.91C97.3,60.35,104.5,73.45,122.14,73.45Zm-.07-45.72c9.86,0,18.79,8.06,18.79,22.54,0,18.28-12.1,20.73-16.92,20.73-12.1,0-20-9.36-20-23.47C104,33.92,112.06,27.73,122.07,27.73Z"/><path d="M192.2,25.93a8.66,8.66,0,0,0-1.37.28,30.41,30.41,0,0,1-5.19.37H162c-.08,0-2.09-.08-4.61-.37-1.3-.14-2.67-.79-3.17-.79-.22,0-.43.29-.65,1.16-.43,1.94-1.51,6.69-1.44,7.12s.07.65.36.65.43-.07.65-.57a11,11,0,0,1,1.08-2.24c1-1.51,2-2.23,6.62-2.3,2.88-.07,6.7-.07,9.08-.07v25.7c0,5.4,0,10.59-.29,13.18s-.51,3.31-1.87,3.53a12.09,12.09,0,0,1-1.59.07c-.57,0-.79.29-.79.51s.29.5,1.08.5c1.87,0,6.12-.22,6.41-.22s4.53.22,8.21.22c.72,0,.93-.22.93-.58,0-.21-.28-.43-.86-.43a14,14,0,0,1-2.81-.29c-1.8-.43-1.94-1.44-2.16-3.17-.29-2.66-.36-7.77-.36-13.32V29.17c2.09,0,4.32.07,7.06.07,7.27.07,8.21.79,8.49,3.67a7.32,7.32,0,0,1,.08,1c0,.58.14.86.5.86s.5-.21.5-.86.15-5.33.15-7.34C192.63,26.29,192.48,25.93,192.2,25.93Z"/><path d="M200.91,27.37a12.21,12.21,0,0,1,1.72.14c2.09.43,2.6,1.44,2.74,3.46s.14,3.67.14,13.1v10.8c0,5.48-.07,8.43-.14,10.88-.14,4.46-1,5.4-2.3,5.68a5.2,5.2,0,0,1-1.44.22.59.59,0,0,0-.65.51c0,.35.36.5,1,.5,1.72,0,3.09-.22,4.75-.22,2.66,0,6,.15,8.5.22s4.53.14,9.28.14c2.38,0,2.88-.14,3.17-1.58.22-1.23.79-5.76.79-6.27s0-1.08-.43-1.08-.5.29-.65,1c-.57,2.67-1.08,4.11-3.24,4.75a21.19,21.19,0,0,1-5.47.44,13.75,13.75,0,0,1-5.26-.65c-1.51-.65-1.87-2-2-4.68-.07-1.23,0-7.56,0-9.79V49.69c0-.29.07-.5.5-.5,1.16,0,7,.14,8.64.28,2.74.22,3.17,1.23,3.46,2.16a8.43,8.43,0,0,1,.22,1.73c0,.51.07.94.43.94s.43-.22.5-.79c.07-.94.07-2.38.29-4.4s.5-3.45.5-3.81-.14-.44-.28-.44c-.29,0-.51.15-.8.58-.57.79-1.65,1-3.31,1.08-1.51.14-8.85.22-9.72.22-.36,0-.43-.29-.43-.72V29.67c0-.43.14-.57.36-.57s7.27.07,8.21.14c3.6.21,4.25.72,4.68,2.16a7,7,0,0,1,.5,2.3c0,.51.15.8.51.8s.5-.44.5-1.08c.07-1.37.14-2.52.22-3.75a32.73,32.73,0,0,1,.57-3.24c0-.36-.14-.5-.29-.5a2.26,2.26,0,0,0-.79.21,9.85,9.85,0,0,1-2.81.36c-1.44.08-14.25.08-14.61.08-4-.08-6-.22-7.42-.22-.72,0-1.08.14-1.08.58C200,27.15,200.4,27.37,200.91,27.37Z"/><path d="M238.2,27.37a14.23,14.23,0,0,1,1.8.07c2.45.29,2.74,1.58,2.88,3.6s.15,3.53.15,13v10.8c0,5.55.14,10.52-.29,13.25-.22,1.73-.65,3.17-1.87,3.39a7.26,7.26,0,0,1-1.73.14c-.58,0-.79.22-.79.43,0,.43.43.58,1.15.58,2.52,0,4-.22,6.33-.22,7.21,0,12.61.36,17.5.36,3.46,0,3.39-.36,3.82-1.8a46.33,46.33,0,0,0,.86-6.48c0-.72-.14-.93-.43-.93s-.5.28-.58.86a9.19,9.19,0,0,1-1.36,3.6c-1.59,2-4.47,2-7.64,2-5,0-6.41-.44-7.56-1.44-1.22-1.16-1.51-5.33-1.51-13.61v-11c0-9.5-.07-11.09.07-13,.15-2.09.58-3.24,2.59-3.53.72-.07,1.45-.14,1.95-.14s.79-.22.79-.51-.21-.5-.94-.5c-2,0-6.4.22-7.41.22-.15,0-4.47-.22-7.49-.22-.72,0-1.08.14-1.08.5S237.7,27.37,238.2,27.37Z"/><path d="M343,72c1.29-.58,1.44-.72,1.87-2.09a74.63,74.63,0,0,0,1.58-9.21c0-.58-.14-1.08-.5-1.08s-.58.28-.72,1.08c-.22,1.29-1.15,4.46-2.67,6-2.88,3-7.12,3.6-12.52,3.6-15.41,0-26-12.6-26-26.35,0-7.34,1.23-13.75,6.48-18.79,2.52-2.45,7-5.26,16.56-5.26,6.34,0,11.88,1.94,14.4,4.1a10,10,0,0,1,3,7.35c0,1,.07,1.51.58,1.51s.57-.43.64-1.51.07-5,.22-7.42c.14-2.59.36-3.45.36-4,0-.43-.14-.72-.65-.79-2.66-.36-4.9-.58-7.63-1.08a61.57,61.57,0,0,0-10.44-.87c-11.09,0-17.64,3.39-22,7.71a28.75,28.75,0,0,0-8.07,19.66c0,6.84,1.73,15.05,8.71,21.31,5.69,5.11,13,7.78,23.77,7.78C334.68,73.67,340.16,73.16,343,72Z"/><path d="M383.5,73.67c17.35,0,28.73-13.32,28.73-29.45,0-16.78-12.1-27-28.3-27-19.87,0-28.37,16.49-28.37,28.16C355.56,58.33,363.77,73.67,383.5,73.67Zm-.07-54c11.37,0,21.89,9.29,21.89,26.57,0,21-13.4,24.7-19.88,24.7-13,0-23-10.8-23-27.58C362.4,27.58,371.4,19.66,383.43,19.66Z"/><path d="M440.67,18.22c-3.32,0-7.49.22-9.08.22-.57,0-4.89-.22-8.13-.22-.8,0-1.16.15-1.16.58s.29.43.58.43a13,13,0,0,1,2.45.22c2.37.5,2.95,1.65,3.09,4.1s.15,4.32.15,15.55V51.78c0,6.91,0,12.6-.36,15.62-.29,2.09-.65,3.68-2.09,4a10.68,10.68,0,0,1-2.16.29c-.43,0-.58.22-.58.43,0,.43.36.58,1.16.58,2.16,0,6.69-.22,6.91-.22s4.89.22,8.85.22c.8,0,1.16-.22,1.16-.58,0-.21-.15-.43-.58-.43a29.87,29.87,0,0,1-3.24-.29c-2.16-.28-2.59-1.87-2.81-4-.36-3-.36-8.71-.36-15.62V22.18c0-.72.15-1.22.58-1.37a9,9,0,0,1,3.09-.43A12.51,12.51,0,0,1,448,24a14.85,14.85,0,0,1,4,10.52c0,7.56-5.47,12.31-12.45,12.31-1.52,0-1.95.07-1.95.65,0,.36.43.5.79.5A11.05,11.05,0,0,0,440,48c10.22,0,17.71-6.91,17.71-16.27a13.13,13.13,0,0,0-3.6-9.43C452.91,21.25,449.67,18.22,440.67,18.22Z"/><line class="cls-2" x1="425.46" y1="94.58" x2="425.46" y2="94.58"/><polygon points="319.18 93.08 319.18 96.08 425.46 96.08 425.46 94.58 425.46 93.08 319.18 93.08"/><line class="cls-2" x1="65.06" y1="94.58" x2="65.06" y2="94.58"/><polygon points="65.06 94.58 65.06 96.08 171.33 96.08 171.33 93.08 65.06 93.08 65.06 94.58"/><path d="M296.47,148.6c-.59,0-.78.38-1,1.45-.29,1.74-1.55,6-3.59,8.13-3.87,4-9.58,4.84-16.84,4.84a35,35,0,0,1-14.19-2.93c-.05-.33-.09-.68-.13-1-.48-4.06-.48-11.71-.48-21V121c0-15.1,0-17.81.19-20.91a8,8,0,0,1,1-4,48.57,48.57,0,0,1,9.67-.88c8.52,0,16,2.61,19.36,5.52,2.52,2.13,4.07,6.09,4.07,9.87,0,1.36.1,2,.77,2s.78-.58.88-2,.09-6.78.29-10c.19-3.49.48-4.65.48-5.42a.92.92,0,0,0-.87-1.07c-3.58-.48-6.58-.77-10.26-1.45a83.2,83.2,0,0,0-14-1.16,55.21,55.21,0,0,0-13.67,1.57l-1.91.08c-.48,0-6.58-.29-10.94-.29-1.06,0-1.55.19-1.55.77,0,.39.39.58.78.58a18.47,18.47,0,0,1,3.29.29,5.39,5.39,0,0,1,2.82,1.34,32.27,32.27,0,0,0-8.35,6,38.21,38.21,0,0,0-10.48,21.68H210.51c-.29,0-.58-.09-.58-.58v-2c0-15.1,0-17.81.19-20.91.19-3.39,1-5,3.58-5.52a14.84,14.84,0,0,1,2.42-.29c.39,0,.78-.19.78-.58,0-.58-.49-.77-1.55-.77-2.91,0-9,.29-9.49.29s-6.58-.29-10.94-.29c-1.06,0-1.55.19-1.55.77,0,.39.39.58.78.58a18.47,18.47,0,0,1,3.29.29c3.19.68,4,2.23,4.16,5.52.2,3.1.2,5.81.2,20.91v17c0,9.29,0,16.94-.49,21-.39,2.81-.87,4.94-2.81,5.33a15.17,15.17,0,0,1-2.9.38c-.58,0-.77.29-.77.59,0,.58.48.77,1.54.77,2.91,0,9-.29,9.49-.29s6.58.29,11.91.29c1.06,0,1.55-.29,1.55-.77,0-.3-.2-.59-.78-.59a42.8,42.8,0,0,1-4.35-.38c-2.91-.39-3.49-2.52-3.78-5.33-.48-4.06-.48-11.71-.48-21V127.88a.51.51,0,0,1,.58-.58h20.93c0,.37,0,.73,0,1.06,0,9.2,2.33,20.24,11.72,28.66a37.26,37.26,0,0,0,7.77,5.41,2.83,2.83,0,0,1-2.06,1.95,15.17,15.17,0,0,1-2.9.38c-.58,0-.78.29-.78.59,0,.58.49.77,1.55.77,2.91,0,9-.29,9.49-.29.25,0,2,.08,4.42.15a63.5,63.5,0,0,0,14.45,1.49c6.2,0,13.55-.67,17.43-2.22,1.74-.78,1.93-1,2.51-2.81a99.91,99.91,0,0,0,2.13-12.39C297.14,149.28,297,148.6,296.47,148.6Zm-44.34-10.55c0,6.42,0,12.06-.16,16.27a36,36,0,0,1-11.85-26.73c0-.1,0-.19,0-.29h11.42a.56.56,0,0,1,.58.58Zm0-15c0,.49-.29.58-.58.58H240.23c.45-8.22,2.51-15.44,8.61-21.3a21.41,21.41,0,0,1,3.08-2.48,2.28,2.28,0,0,0,0,.26c.19,3.1.19,5.81.19,20.91Z"/></g></g></svg>