<svg xmlns="http://www.w3.org/2000/svg" viewBox="0 0 424.8 150.26"><defs><style>.cls-1{fill:#fff;}</style></defs><title>Fichier 25</title><g id="Calque_2" data-name="Calque 2"><g id="Calque_1-2" data-name="Calque 1"><path class="cls-1" d="M43.28,23.83a.38.38,0,0,0,.43-.43V21.89c0-11.23,0-13.25-.15-15.55s-.72-3.6-3.09-4.11A13.88,13.88,0,0,0,38,2c-.29,0-.58-.15-.58-.44S37.8,1,38.59,1c3.24,0,7.78.21,8.14.21S51.63,1,53.79,1c.79,0,1.15.14,1.15.57s-.29.44-.58.44a11.11,11.11,0,0,0-1.8.21C50.62,2.59,50,3.82,49.9,6.34c-.14,2.3-.14,4.32-.14,15.55V34.56c0,6.92,0,12.61.36,15.63.21,2.09.64,3.67,2.8,4,1,.14,2.6.29,3.24.29.44,0,.58.21.58.43s-.36.58-1.15.58c-4,0-8.5-.22-8.86-.22s-4.9.22-7.06.22c-.79,0-1.15-.15-1.15-.58,0-.22.15-.43.58-.43a11.44,11.44,0,0,0,2.16-.29c1.44-.29,1.8-1.87,2.09-4,.36-3,.36-8.71.36-15.63V27a.41.41,0,0,0-.43-.43H12.75c-.22,0-.44.07-.44.43v7.56c0,6.92,0,12.61.36,15.63.22,2.09.65,3.67,2.81,4,1,.14,2.59.29,3.24.29.43,0,.58.21.58.43s-.36.58-1.15.58c-4,0-8.5-.22-8.86-.22s-4.9.22-7.06.22c-.79,0-1.15-.15-1.15-.58,0-.22.14-.43.58-.43a11.55,11.55,0,0,0,2.16-.29c1.44-.29,1.8-1.87,2.08-4,.36-3,.36-8.71.36-15.63V21.89c0-11.23,0-13.25-.14-15.55S5.4,2.74,3,2.23A13.76,13.76,0,0,0,.58,2C.29,2,0,1.87,0,1.58S.36,1,1.15,1c3.24,0,7.78.21,8.14.21S14.18,1,16.34,1c.8,0,1.16.14,1.16.57s-.29.44-.58.44a11.11,11.11,0,0,0-1.8.21c-1.94.36-2.52,1.59-2.66,4.11-.15,2.3-.15,4.32-.15,15.55V23.4c0,.36.22.43.44.43Z"/><path class="cls-1" d="M64.44,32.19c0-9.58,7.42-23.91,25.2-23.91,14.26,0,25.13,8.5,25.13,23,0,13.75-10.15,25-25.49,25C71.64,56.24,64.44,43.13,64.44,32.19Zm43.56.86c0-14.47-8.93-22.54-18.79-22.54s-18.07,6.2-18.07,19.81c0,14.11,7.84,23.47,19.94,23.47C95.91,53.79,108,51.34,108,33.05Z"/><path class="cls-1" d="M143,37.66c0,5.54.08,10.66.36,13.32.22,1.73.36,2.74,2.16,3.17a14.08,14.08,0,0,0,2.81.29c.58,0,.87.21.87.43s-.22.58-.94.58c-3.67,0-7.92-.22-8.21-.22s-4.54.22-6.41.22c-.79,0-1.08-.15-1.08-.51s.22-.5.79-.5a12.09,12.09,0,0,0,1.59-.07c1.37-.22,1.58-1.08,1.87-3.53s.29-7.78.29-13.18V12c-2.38,0-6.19,0-9.07.08-4.61.07-5.62.79-6.63,2.3a11.59,11.59,0,0,0-1.08,2.23c-.21.51-.36.58-.65.58s-.36-.29-.36-.65,1-5.18,1.44-7.13c.22-.86.44-1.15.65-1.15.51,0,1.87.65,3.17.79,2.52.29,4.54.36,4.61.36h23.62A30.55,30.55,0,0,0,158,9a9.75,9.75,0,0,1,1.37-.29c.29,0,.43.36.43.65,0,2-.14,6.77-.14,7.35s-.29.86-.51.86-.5-.29-.5-.86a8.35,8.35,0,0,0-.07-1c-.29-2.88-1.23-3.6-8.5-3.67-2.74,0-5-.08-7.06-.08Z"/><path class="cls-1" d="M172.66,26.86c0-9.43,0-11.16-.15-13.11s-.64-3-2.73-3.45a12.39,12.39,0,0,0-1.73-.15c-.51,0-.94-.21-.94-.43,0-.43.36-.57,1.08-.57,1.44,0,3.39.14,7.42.21.36,0,13.18,0,14.62-.07a9.77,9.77,0,0,0,2.8-.36,2.36,2.36,0,0,1,.8-.22c.14,0,.28.15.28.51a32.73,32.73,0,0,0-.57,3.24c-.07,1.22-.15,2.37-.22,3.74,0,.65-.14,1.08-.5,1.08s-.51-.29-.51-.79a6.7,6.7,0,0,0-.5-2.3c-.43-1.44-1.08-1.95-4.68-2.16-.94-.08-8.06-.15-8.21-.15s-.36.15-.36.58V28.8c0,.44.07.72.43.72.87,0,8.21-.07,9.72-.21s2.74-.29,3.32-1.08c.28-.44.5-.58.79-.58s.29.07.29.43-.29,1.73-.51,3.82-.21,3.46-.29,4.39c-.07.58-.21.79-.5.79s-.43-.43-.43-.93a7.79,7.79,0,0,0-.22-1.73c-.29-.94-.72-1.94-3.45-2.16-1.66-.14-7.49-.29-8.64-.29-.44,0-.51.22-.51.51v5.25c0,2.23-.07,8.57,0,9.79.15,2.67.51,4,2,4.69a13.77,13.77,0,0,0,5.25.64,21.67,21.67,0,0,0,5.48-.43c2.16-.65,2.66-2.09,3.24-4.75.14-.72.36-1,.64-1,.44,0,.44.65.44,1.08s-.58,5-.8,6.26c-.28,1.45-.79,1.59-3.16,1.59-4.76,0-6.77-.14-9.29-.14s-5.84-.22-8.5-.22c-1.66,0-3,.22-4.75.22-.65,0-1-.15-1-.51s.29-.5.65-.5a5.2,5.2,0,0,0,1.44-.22c1.29-.29,2.16-1.22,2.3-5.69.07-2.45.15-5.4.15-10.87Z"/><path class="cls-1" d="M216.07,37.8c0,8.28.29,12.46,1.51,13.61s2.6,1.44,7.57,1.44c3.16,0,6,0,7.63-2a9.37,9.37,0,0,0,1.37-3.6c.07-.58.21-.87.57-.87s.43.22.43.94a46.52,46.52,0,0,1-.86,6.48c-.43,1.44-.36,1.8-3.82,1.8-4.89,0-10.29-.36-17.49-.36-2.38,0-3.82.22-6.34.22-.72,0-1.15-.15-1.15-.58,0-.22.21-.43.79-.43a6.75,6.75,0,0,0,1.73-.15c1.22-.21,1.65-1.65,1.87-3.38.43-2.74.29-7.71.29-13.25V26.86c0-9.51,0-11.09-.15-13s-.43-3.32-2.88-3.6a12.47,12.47,0,0,0-1.8-.08c-.5,0-.79-.21-.79-.5s.36-.5,1.08-.5c3,0,7.35.21,7.49.21,1,0,5.4-.21,7.42-.21.72,0,.93.21.93.5s-.36.5-.79.5-1.22.08-1.94.15c-2,.28-2.45,1.44-2.59,3.53-.15,1.94-.08,3.52-.08,13Z"/><path class="cls-1" d="M273.46,48.68c-7-6.27-8.72-14.48-8.72-21.32a28.73,28.73,0,0,1,8.07-19.65c4.32-4.33,10.87-7.71,22-7.71a62.53,62.53,0,0,1,10.44.86c2.74.51,5,.72,7.63,1.08a.69.69,0,0,1,.65.8c0,.57-.21,1.44-.36,4-.14,2.38-.14,6.34-.21,7.42s-.22,1.51-.65,1.51-.58-.51-.58-1.51a10,10,0,0,0-3-7.35c-2.52-2.16-8.07-4.1-14.4-4.1-9.58,0-14,2.8-16.57,5.25-5.25,5-6.48,11.45-6.48,18.8,0,13.75,10.59,26.35,26,26.35,5.4,0,9.65-.65,12.53-3.6,1.51-1.58,2.45-4.75,2.66-6,.15-.79.29-1.08.72-1.08s.51.51.51,1.08a74.85,74.85,0,0,1-1.59,9.22c-.43,1.37-.57,1.51-1.87,2.09-2.88,1.15-8.35,1.65-13,1.65C286.42,56.45,279.14,53.79,273.46,48.68Z"/><path class="cls-1" d="M322.7,28.16C322.7,16.49,331.2,0,351.07,0c16.21,0,28.3,10.23,28.3,27,0,16.13-11.37,29.45-28.73,29.45C330.91,56.45,322.7,41.12,322.7,28.16Zm49.76.86c0-17.28-10.51-26.57-21.89-26.57-12,0-21,7.92-21,23.69,0,16.78,10.09,27.58,23,27.58C359.07,53.72,372.46,50,372.46,29Z"/><path class="cls-1" d="M395.71,21.89c0-11.23,0-13.25-.14-15.55s-.72-3.6-3.1-4.11A13.88,13.88,0,0,0,390,2c-.29,0-.57-.15-.57-.44S389.81,1,390.6,1c3.24,0,7.56.21,8.14.21,1.58,0,5.76-.21,9.07-.21,9,0,12.24,3,13.39,4.1a13.12,13.12,0,0,1,3.6,9.44c0,9.36-7.49,16.27-17.71,16.27a10.91,10.91,0,0,1-1.51-.07c-.36,0-.8-.15-.8-.51,0-.57.44-.65,2-.65,7,0,12.45-4.75,12.45-12.31a14.83,14.83,0,0,0-4-10.51,12.49,12.49,0,0,0-9.86-3.6,8.82,8.82,0,0,0-3.1.43c-.43.15-.57.65-.57,1.37V34.56c0,6.92,0,12.61.36,15.63.21,2.09.64,3.67,2.8,4,1,.14,2.6.29,3.24.29.44,0,.58.21.58.43s-.36.58-1.15.58c-4,0-8.5-.22-8.86-.22-.21,0-4.75.22-6.91.22-.79,0-1.15-.15-1.15-.58,0-.22.14-.43.57-.43a11.44,11.44,0,0,0,2.16-.29c1.44-.29,1.8-1.87,2.09-4,.36-3,.36-8.71.36-15.63Z"/><line class="cls-1" x1="286.33" y1="77.37" x2="392.6" y2="77.37"/><rect class="cls-1" x="286.33" y="75.87" width="106.27" height="3"/><line class="cls-1" x1="32.2" y1="77.37" x2="138.47" y2="77.37"/><rect class="cls-1" x="32.2" y="75.87" width="106.27" height="3"/><path class="cls-1" d="M263.61,131.38c-.58,0-.78.39-1,1.46-.29,1.74-1.55,6-3.58,8.13-3.87,4-9.59,4.84-16.85,4.84A34.88,34.88,0,0,1,228,142.87c-.05-.33-.09-.67-.13-1-.48-4.07-.48-11.71-.48-21v-17c0-15.1,0-17.81.19-20.9a8,8,0,0,1,1-4,49.33,49.33,0,0,1,9.67-.88c8.52,0,16,2.62,19.37,5.52,2.51,2.13,4.06,6.1,4.06,9.88,0,1.35.1,2,.78,2s.77-.58.87-2,.09-6.78.29-10c.19-3.49.48-4.65.48-5.43a.91.91,0,0,0-.87-1.06c-3.58-.48-6.58-.77-10.26-1.45a83.11,83.11,0,0,0-14-1.16,55.21,55.21,0,0,0-13.67,1.57l-1.91.07c-.48,0-6.58-.29-10.94-.29-1.06,0-1.55.2-1.55.78,0,.38.39.58.78.58a17.51,17.51,0,0,1,3.29.29,5.36,5.36,0,0,1,2.82,1.34,32,32,0,0,0-8.34,6,38.16,38.16,0,0,0-10.49,21.69H177.65a.51.51,0,0,1-.58-.58v-2c0-15.1,0-17.81.19-20.9.2-3.39,1-5,3.58-5.52a13.89,13.89,0,0,1,2.43-.29c.38,0,.77-.2.77-.58,0-.58-.48-.78-1.55-.78-2.9,0-9,.29-9.49.29s-6.58-.29-10.94-.29c-1.06,0-1.54.2-1.54.78,0,.38.38.58.77.58a17.51,17.51,0,0,1,3.29.29c3.2.68,4,2.22,4.16,5.52.2,3.09.2,5.8.2,20.9v17c0,9.3,0,16.94-.49,21-.38,2.81-.87,4.94-2.8,5.32a14.63,14.63,0,0,1-2.91.39c-.58,0-.77.29-.77.58,0,.58.48.77,1.55.77,2.9,0,9-.29,9.48-.29s6.59.29,11.91.29c1.06,0,1.55-.29,1.55-.77,0-.29-.19-.58-.78-.58a40.4,40.4,0,0,1-4.35-.39c-2.91-.38-3.49-2.51-3.78-5.32-.48-4.07-.48-11.71-.48-21V110.67c0-.49.29-.58.58-.58h20.93c0,.36,0,.72,0,1.06,0,9.2,2.33,20.23,11.72,28.65a37.3,37.3,0,0,0,7.77,5.42,2.78,2.78,0,0,1-2.06,1.94,14.44,14.44,0,0,1-2.9.39c-.58,0-.77.29-.77.58,0,.58.48.77,1.55.77,2.9,0,9-.29,9.48-.29l4.42.16a63.56,63.56,0,0,0,14.45,1.49c6.2,0,13.56-.68,17.43-2.23,1.74-.77,1.93-1,2.52-2.8a102.19,102.19,0,0,0,2.13-12.39C264.29,132.06,264.09,131.38,263.61,131.38Zm-44.33-10.55c0,6.43,0,12.07-.16,16.28a36,36,0,0,1-11.85-26.73v-.29h11.42a.56.56,0,0,1,.59.58Zm0-15a.51.51,0,0,1-.59.58H207.37c.45-8.22,2.51-15.45,8.61-21.3a20.63,20.63,0,0,1,3.08-2.48,2.28,2.28,0,0,1,0,.26c.2,3.09.2,5.8.2,20.9Z"/></g></g></svg>