<svg xmlns="http://www.w3.org/2000/svg" viewBox="0 0 103.77 75.89"><defs><style>.cls-1{fill:#1d1d1b;}</style></defs><title>Fichier 5</title><g id="Calque_2" data-name="Calque 2"><g id="Calque_1-2" data-name="Calque 1"><path class="cls-1" d="M103.09,57c-.58,0-.77.38-1,1.45-.29,1.74-1.54,6-3.58,8.13-3.87,4-9.58,4.84-16.84,4.84a35.05,35.05,0,0,1-14.2-2.93c0-.33-.09-.68-.12-1-.49-4.06-.49-11.71-.49-21v-17c0-15.1,0-17.81.2-20.91a8,8,0,0,1,1-4,48.42,48.42,0,0,1,9.67-.88c8.52,0,16,2.61,19.36,5.52,2.52,2.13,4.07,6.09,4.07,9.87,0,1.36.09,2,.77,2s.77-.58.87-2,.1-6.78.29-10c.19-3.48.49-4.65.49-5.42a.93.93,0,0,0-.88-1.07c-3.58-.48-6.58-.77-10.26-1.45A83,83,0,0,0,78.41,0,54.79,54.79,0,0,0,64.73,1.58l-1.9.07c-.49,0-6.59-.29-10.94-.29-1.07,0-1.55.19-1.55.77,0,.39.39.58.77.58A18.39,18.39,0,0,1,54.4,3a5.36,5.36,0,0,1,2.82,1.35,32,32,0,0,0-8.34,6A38.23,38.23,0,0,0,38.39,32H17.13c-.29,0-.58-.09-.58-.58v-2c0-15.1,0-17.81.2-20.91.19-3.39,1-5,3.58-5.52a14.72,14.72,0,0,1,2.42-.29c.39,0,.77-.19.77-.58,0-.58-.48-.77-1.55-.77-2.9,0-9,.29-9.48.29S5.91,1.36,1.55,1.36C.48,1.36,0,1.55,0,2.13c0,.39.39.58.77.58A18.5,18.5,0,0,1,4.07,3c3.19.68,4,2.23,4.16,5.52.19,3.1.19,5.81.19,20.91v17c0,9.29,0,16.94-.48,21-.39,2.81-.87,4.94-2.81,5.33a15.17,15.17,0,0,1-2.9.38c-.58,0-.78.29-.78.59,0,.58.49.77,1.55.77,2.91,0,9-.29,9.49-.29s6.58.29,11.9.29c1.07,0,1.55-.29,1.55-.77,0-.3-.19-.59-.77-.59a43.21,43.21,0,0,1-4.36-.38c-2.9-.39-3.48-2.52-3.77-5.33-.49-4.06-.49-11.71-.49-21V36.3a.51.51,0,0,1,.58-.58H38.06c0,.37,0,.73,0,1.07C38,46,40.36,57,49.75,65.44a37.52,37.52,0,0,0,7.77,5.41,2.8,2.8,0,0,1-2.05,2,15.17,15.17,0,0,1-2.91.38c-.58,0-.77.29-.77.59,0,.58.48.77,1.55.77,2.9,0,9-.29,9.49-.29.25,0,2,.08,4.41.15A63.65,63.65,0,0,0,81.7,75.89c6.19,0,13.55-.67,17.42-2.22,1.75-.78,1.94-1,2.52-2.81a99.91,99.91,0,0,0,2.13-12.39C103.77,57.7,103.58,57,103.09,57ZM58.76,46.47c0,6.42,0,12.06-.16,16.27A36,36,0,0,1,46.75,36v-.29H58.18a.56.56,0,0,1,.58.58Zm0-15c0,.49-.29.58-.58.58H46.86c.45-8.22,2.5-15.44,8.6-21.3a21.83,21.83,0,0,1,3.08-2.47l0,.25c.19,3.1.19,5.81.19,20.91Z"/></g></g></svg>